<svg width="39" height="39" viewBox="0 0 39 39" fill="none" xmlns="http://www.w3.org/2000/svg">
<path d="M6.70476 32.5C6.45126 32.5 6.22701 32.4399 6.03201 32.3197C5.83701 32.1994 5.68534 32.0407 5.57701 31.8435C5.46001 31.6496 5.39501 31.44 5.38201 31.2147C5.37117 30.9883 5.43509 30.7602 5.57376 30.5305L18.3625 8.46955C18.5012 8.23988 18.668 8.07305 18.863 7.96905C19.058 7.86505 19.2703 7.81305 19.5 7.81305C19.7297 7.81305 19.9415 7.86505 20.1354 7.96905C20.3293 8.07305 20.4961 8.23988 20.6359 8.46955L33.4263 30.5305C33.5649 30.7602 33.6283 30.9877 33.6164 31.213C33.6055 31.4405 33.5405 31.6507 33.4214 31.8435C33.313 32.0407 33.1614 32.1994 32.9664 32.3197C32.7714 32.4399 32.5477 32.5 32.2953 32.5H6.70476ZM19.5 28.626C19.7838 28.626 20.0216 28.5302 20.2134 28.3384C20.4051 28.1467 20.5005 27.9089 20.4994 27.625C20.4983 27.3412 20.4024 27.104 20.2118 26.9133C20.0211 26.7226 19.7838 26.6262 19.5 26.6241C19.2162 26.6219 18.9789 26.7178 18.7883 26.9117C18.5976 27.1056 18.5017 27.3434 18.5006 27.625C18.4995 27.9067 18.5954 28.1445 18.7883 28.3384C18.9811 28.5323 19.2183 28.6282 19.5 28.626ZM19.5 25.0007C19.7318 25.0007 19.9252 24.9227 20.0801 24.7667C20.235 24.6107 20.3125 24.4178 20.3125 24.1882V17.6882C20.3125 17.4574 20.2345 17.264 20.0785 17.108C19.9225 16.952 19.7291 16.8746 19.4984 16.8757C19.2676 16.8768 19.0748 16.9542 18.9199 17.108C18.765 17.2619 18.6875 17.4553 18.6875 17.6882V24.1882C18.6875 24.4178 18.7655 24.6107 18.9215 24.7667C19.0775 24.9227 19.2709 25.0007 19.5016 25.0007" fill="#FFB800"/>
</svg>
