<svg width="56" height="56" viewBox="0 0 56 56" fill="none" xmlns="http://www.w3.org/2000/svg">
<path d="M38.5093 26.25C38.2184 26.25 37.9501 26.1528 37.7043 25.9583C37.457 25.7639 37.3333 25.4722 37.3333 25.0833V12.8333C37.3333 12.502 37.4453 12.2251 37.6693 12.0026C37.8933 11.7802 38.171 11.6682 38.5023 11.6666C38.8337 11.6651 39.1105 11.7771 39.333 12.0026C39.5554 12.2282 39.6667 12.5051 39.6667 12.8333V25.0833C39.6667 25.4722 39.5461 25.7639 39.305 25.9583C39.0639 26.1528 38.7987 26.25 38.5093 26.25ZM11.6667 43.1666V12.8333C11.6667 12.502 11.7787 12.2251 12.0027 12.0026C12.2267 11.7802 12.5043 11.6682 12.8357 11.6666C13.167 11.6651 13.4439 11.7771 13.6663 12.0026C13.8888 12.2282 14 12.5051 14 12.8333V43.1666C14 43.498 13.888 43.7749 13.664 43.9973C13.44 44.2198 13.1623 44.3318 12.831 44.3333C12.4997 44.3349 12.2228 44.2229 12.0003 43.9973C11.7779 43.7718 11.6667 43.4949 11.6667 43.1666ZM24.5 17.5466V12.8333C24.5 12.502 24.612 12.2251 24.836 12.0026C25.06 11.7802 25.3377 11.6682 25.669 11.6666C26.0003 11.6651 26.2772 11.7771 26.4997 12.0026C26.7221 12.2282 26.8333 12.5051 26.8333 12.8333V17.5466C26.8333 17.8764 26.7213 18.1533 26.4973 18.3773C26.2733 18.6013 25.9957 18.7125 25.6643 18.711C25.333 18.7094 25.0561 18.5974 24.8337 18.375C24.6112 18.1525 24.5 17.878 24.5 17.5466ZM24.5 30.3333V25.62C24.5 25.2902 24.612 25.0141 24.836 24.7916C25.06 24.5692 25.3377 24.4572 25.669 24.4556C26.0003 24.4541 26.2772 24.5661 26.4997 24.7916C26.7221 25.0172 26.8333 25.2941 26.8333 25.6223V30.3333C26.8333 30.6646 26.7213 30.9415 26.4973 31.164C26.2733 31.3864 25.9957 31.4984 25.6643 31.5C25.333 31.5015 25.0561 31.3895 24.8337 31.164C24.6112 30.9384 24.5 30.6615 24.5 30.3333ZM24.5 43.1666V38.4533C24.5 38.1235 24.612 37.8474 24.836 37.625C25.06 37.4025 25.3377 37.2905 25.669 37.289C26.0003 37.2874 26.2772 37.3994 26.4997 37.625C26.7221 37.8505 26.8333 38.1274 26.8333 38.4556V43.1666C26.8333 43.498 26.7213 43.7749 26.4973 43.9973C26.2733 44.2198 25.9957 44.3318 25.6643 44.3333C25.333 44.3349 25.0561 44.2229 24.8337 43.9973C24.6112 43.7718 24.5 43.4949 24.5 43.1666ZM35.091 44.3333C34.5559 44.3333 34.1079 44.1529 33.747 43.792C33.3861 43.4311 33.2057 42.9831 33.2057 42.448V39.9466C33.2057 39.7086 33.2484 39.4776 33.334 39.2536C33.4211 39.0312 33.5665 38.8181 33.7703 38.6143L45.647 26.796C45.8772 26.5642 46.1152 26.4086 46.361 26.3293C46.6052 26.2484 46.8502 26.208 47.096 26.208C47.3635 26.208 47.6257 26.2578 47.8823 26.3573C48.139 26.4569 48.3739 26.607 48.587 26.8076L50.7453 29.0126C50.9367 29.2429 51.0821 29.4824 51.1817 29.7313C51.2828 29.9786 51.3333 30.2268 51.3333 30.4756C51.3333 30.7245 51.2859 30.975 51.191 31.227C51.0961 31.479 50.9475 31.7201 50.7453 31.9503L38.927 43.771C38.7232 43.9732 38.5093 44.1179 38.2853 44.205C38.0629 44.2921 37.8319 44.3356 37.5923 44.3356L35.091 44.3333ZM35.2707 42.2706H37.4873L45.577 34.1646L44.4803 33.0563L43.4187 31.9176L35.2707 40.054V42.2706ZM44.4803 33.0563L43.4187 31.9176L45.577 34.1646L44.4803 33.0563Z" fill="#064359"/>
</svg>
