<svg width="39" height="39" viewBox="0 0 39 39" fill="none" xmlns="http://www.w3.org/2000/svg">
<path opacity="0.5" d="M14.625 7.31247H13C9.16987 7.31247 7.254 7.31247 6.0645 8.50197C4.875 9.69147 4.875 11.6073 4.875 15.4375V23.5625C4.875 27.3926 4.875 29.3068 6.0645 30.498C7.254 31.6875 9.16987 31.6875 13 31.6875H14.625" stroke="black" stroke-width="2.4375"/>
<path d="M14.625 10.5235C14.625 6.79738 14.625 4.9335 15.7739 3.91463C16.9227 2.89575 18.6794 3.20125 22.1926 3.81388L25.9789 4.47525C29.8691 5.15288 31.8142 5.4925 32.9696 6.91925C34.125 8.34763 34.125 10.4114 34.125 14.5405V24.4611C34.125 28.5886 34.125 30.6524 32.9713 32.0808C31.8143 33.5075 29.8675 33.8471 25.9773 34.5264L22.1942 35.1861C18.681 35.7988 16.9244 36.1043 15.7755 35.0854C14.625 34.0665 14.625 32.2026 14.625 28.4765V10.5235Z" stroke="black" stroke-width="2.4375"/>
<path opacity="0.5" d="M19.5 17.875V21.125" stroke="black" stroke-width="2.4375" stroke-linecap="round"/>
</svg>
