<svg width="46" height="46" viewBox="0 0 46 46" fill="none" xmlns="http://www.w3.org/2000/svg">
<path d="M37.1546 36.4167H28.6542C28.3833 36.4167 28.1558 36.3247 27.9718 36.1407C27.7878 35.9567 27.6958 35.7286 27.6958 35.4564C27.6958 35.1843 27.7878 34.9568 27.9718 34.7741C28.1558 34.5914 28.3833 34.5 28.6542 34.5H37.1546C37.4983 34.5 37.7807 34.3895 38.0018 34.1684C38.2228 33.9474 38.3333 33.665 38.3333 33.3213V25.4687C38.3333 25.1978 38.4253 24.9704 38.6093 24.7864C38.7933 24.6024 39.0214 24.5104 39.2936 24.5104C39.5658 24.5104 39.7932 24.6024 39.9759 24.7864C40.1587 24.9704 40.25 25.1978 40.25 25.4687V33.3194C40.25 34.1716 39.9465 34.9006 39.3396 35.5063C38.7327 36.1119 38.0043 36.4154 37.1546 36.4167ZM6.70643 14.5514C6.43427 14.5514 6.20682 14.46 6.0241 14.2773C5.84138 14.0946 5.75002 13.8665 5.75002 13.593V12.6807C5.75002 11.8284 6.05349 11.0994 6.66043 10.4938C7.26738 9.88811 7.99571 9.58463 8.84543 9.58336H21.1945C21.4654 9.58336 21.6928 9.67536 21.8768 9.85936C22.0608 10.0434 22.1528 10.2714 22.1528 10.5436C22.1528 10.8158 22.0608 11.0432 21.8768 11.2259C21.6928 11.4087 21.4654 11.5 21.1945 11.5H8.84735C8.50235 11.5 8.21932 11.6105 7.99827 11.8316C7.77721 12.0527 7.66668 12.3357 7.66668 12.6807V13.593C7.66668 13.8652 7.57468 14.0933 7.39068 14.2773C7.20668 14.4613 6.9786 14.5526 6.70643 14.5514ZM34.5 19.9774C32.3648 19.9774 30.5536 19.2338 29.0663 17.7464C27.5777 16.2578 26.8333 14.4459 26.8333 12.3108C26.8333 10.1756 27.5777 8.36436 29.0663 6.87702C30.5549 5.38969 32.3661 4.64538 34.5 4.64411C36.6339 4.64283 38.4458 5.38713 39.9357 6.87702C41.4256 8.36691 42.1692 10.1782 42.1667 12.3108C42.1641 14.4434 41.4205 16.2553 39.9357 17.7464C38.4509 19.2376 36.639 19.9813 34.5 19.9774ZM34.5 16.9549C34.7556 16.9549 34.9664 16.8718 35.1325 16.7057C35.3012 16.5383 35.3855 16.3268 35.3855 16.0713C35.3855 15.8157 35.3018 15.6042 35.1344 15.4369C34.967 15.2695 34.7556 15.1858 34.5 15.1858C34.2445 15.1858 34.0336 15.2688 33.8675 15.4349C33.7014 15.6011 33.6171 15.8132 33.6145 16.0713C33.612 16.3294 33.6957 16.5402 33.8656 16.7038C34.033 16.8712 34.2445 16.9549 34.5 16.9549ZM34.5 13.4167C34.6968 13.4167 34.8693 13.3432 35.0175 13.1963C35.1632 13.0481 35.236 12.8755 35.236 12.6788V8.40461C35.236 8.20783 35.1625 8.03533 35.0156 7.88711C34.8687 7.74016 34.6968 7.66669 34.5 7.66669C34.3032 7.66669 34.1307 7.7408 33.9825 7.88902C33.8368 8.03597 33.764 8.20783 33.764 8.40461V12.6788C33.764 12.8755 33.8375 13.0481 33.9844 13.1963C34.1314 13.3432 34.3032 13.4167 34.5 13.4167ZM7.59385 36.4167C7.06485 36.4167 6.62529 36.2416 6.27518 35.8915C5.92507 35.5414 5.75002 35.1025 5.75002 34.5748C5.75002 34.0471 5.92507 33.6075 6.27518 33.2561C6.62529 32.9047 7.06485 32.7297 7.59385 32.7309C8.12285 32.7322 8.56177 32.9073 8.9106 33.2561C9.25943 33.6049 9.43449 34.0445 9.43577 34.5748C9.43704 35.105 9.26199 35.544 8.9106 35.8915C8.55921 36.2391 8.12029 36.4141 7.59385 36.4167ZM14.9577 36.4167C14.697 36.4167 14.4734 36.3266 14.2868 36.1464C14.1003 35.965 13.9834 35.7414 13.9361 35.4756C13.7317 33.5615 12.9394 31.9387 11.5594 30.6073C10.1794 29.2758 8.52088 28.4836 6.58377 28.2306C6.3231 28.1987 6.11866 28.0824 5.97043 27.8818C5.82221 27.6812 5.74874 27.4537 5.75002 27.1994C5.75002 26.9286 5.85032 26.7011 6.05093 26.5171C6.25154 26.3331 6.48091 26.2615 6.73902 26.3024C9.17574 26.5388 11.2496 27.5119 12.9605 29.2215C14.6715 30.9312 15.6362 33.005 15.8547 35.443C15.893 35.7088 15.8227 35.9375 15.6438 36.1292C15.465 36.3209 15.2362 36.4167 14.9577 36.4167ZM22.1893 36.4167C21.8915 36.4167 21.6577 36.3023 21.4878 36.0736C21.3165 35.8449 21.2111 35.5702 21.1715 35.2494C20.8725 31.3803 19.3571 28.092 16.6252 25.3844C13.8933 22.6767 10.5819 21.2009 6.6911 20.9569C6.42532 20.9428 6.20171 20.8399 6.02027 20.6483C5.8401 20.4566 5.75002 20.233 5.75002 19.9774C5.75002 19.704 5.85032 19.474 6.05093 19.2874C6.25027 19.1009 6.49113 19.0153 6.77352 19.0306C11.2048 19.2734 14.9737 20.9524 18.0799 24.0676C21.1862 27.1828 22.8684 30.9516 23.1265 35.374C23.1406 35.6705 23.0556 35.9184 22.8716 36.1177C22.6876 36.317 22.4602 36.4167 22.1893 36.4167Z" fill="#064359"/>
</svg>
