<svg width="49" height="49" viewBox="0 0 49 49" fill="none" xmlns="http://www.w3.org/2000/svg">
<path d="M23.0402 18.8446H39.8431C38.9516 16.4449 37.5286 14.3243 35.574 12.4827C33.6208 10.6425 31.3927 9.408 28.8896 8.77917L23.0402 18.8446ZM18.814 22.9279L27.2971 8.37083C26.9228 8.30278 26.4573 8.25174 25.9006 8.21771C25.3439 8.18368 24.877 8.16667 24.5 8.16667C22.2542 8.16667 20.1615 8.59201 18.2219 9.44271C16.2823 10.2934 14.5639 11.4333 13.0667 12.8625L18.814 22.9279ZM8.67709 28.5833H20.2738L11.954 14.1038C10.7589 15.5766 9.82928 17.1813 9.16505 18.9181C8.50083 20.6549 8.16804 22.5155 8.16668 24.5C8.16668 25.2146 8.20955 25.904 8.2953 26.5682C8.38105 27.2324 8.50832 27.9041 8.67709 28.5833ZM20.1901 40.2208L26.0149 30.1554H9.15485C10.0477 32.5551 11.4844 34.6757 13.4648 36.5173C15.4452 38.3588 17.6877 39.5934 20.1921 40.2208M24.5 40.8333C26.7458 40.8333 28.8386 40.408 30.7781 39.5573C32.7177 38.7066 34.4361 37.5667 35.9333 36.1375L30.1861 26.0721L21.7826 40.5516C22.1569 40.6455 22.6013 40.7163 23.1158 40.7639C23.6303 40.8116 24.0917 40.8347 24.5 40.8333ZM37.0481 34.8962C38.137 33.501 39.0401 31.8963 39.7574 30.0819C40.4747 28.2676 40.8333 26.4069 40.8333 24.5C40.8333 23.7854 40.7912 23.0967 40.7068 22.4338C40.6224 21.771 40.4944 21.0986 40.3229 20.4167H28.7263L37.0481 34.8962ZM24.5 42.875C21.9711 42.875 19.5891 42.3918 17.3542 41.4254C15.1192 40.4577 13.1728 39.1442 11.515 37.485C9.85718 35.8258 8.54371 33.8794 7.57459 31.6458C6.60548 29.4123 6.12229 27.0303 6.12501 24.5C6.12501 21.9629 6.60821 19.5789 7.57459 17.348C8.54235 15.1158 9.85582 13.1715 11.515 11.515C13.1742 9.85853 15.1206 8.54506 17.3542 7.57458C19.5891 6.60819 21.9711 6.125 24.5 6.125C27.0371 6.125 29.4211 6.60819 31.652 7.57458C33.8842 8.54233 35.8292 9.85581 37.4871 11.515C39.1449 13.1742 40.4577 15.1185 41.4254 17.348C42.3918 19.5803 42.875 21.9643 42.875 24.5C42.875 27.0289 42.3918 29.4109 41.4254 31.6458C40.4577 33.8808 39.1442 35.8272 37.485 37.485C35.8258 39.1428 33.8815 40.4563 31.652 41.4254C29.4225 42.3945 27.0385 42.8777 24.5 42.875Z" fill="#064359"/>
</svg>
